<svg xmlns="http://www.w3.org/2000/svg" width="36.863" height="36.854" viewBox="0 0 36.863 36.854">
  <path id="instagram-brands" d="M18.36,40.8a9.449,9.449,0,1,0,9.449,9.449A9.434,9.434,0,0,0,18.36,40.8Zm0,15.592A6.143,6.143,0,1,1,24.5,50.252,6.154,6.154,0,0,1,18.36,56.4ZM30.4,40.417a2.2,2.2,0,1,1-2.2-2.2A2.2,2.2,0,0,1,30.4,40.417Zm6.258,2.237c-.14-2.952-.814-5.567-2.977-7.722s-4.77-2.829-7.722-2.977c-3.043-.173-12.163-.173-15.206,0-2.944.14-5.559.814-7.722,2.969S.2,39.693.055,42.645c-.173,3.043-.173,12.163,0,15.206.14,2.952.814,5.567,2.977,7.722S7.8,68.4,10.754,68.55c3.043.173,12.163.173,15.206,0,2.952-.14,5.567-.814,7.722-2.977s2.829-4.77,2.977-7.722C36.831,54.808,36.831,45.7,36.658,42.653ZM32.727,61.116a6.219,6.219,0,0,1-3.5,3.5c-2.426.962-8.183.74-10.863.74s-8.446.214-10.863-.74a6.219,6.219,0,0,1-3.5-3.5c-.962-2.426-.74-8.183-.74-10.863s-.214-8.446.74-10.863a6.219,6.219,0,0,1,3.5-3.5c2.426-.962,8.183-.74,10.863-.74s8.446-.214,10.863.74a6.219,6.219,0,0,1,3.5,3.5c.962,2.426.74,8.183.74,10.863S33.689,58.7,32.727,61.116Z" transform="translate(0.075 -31.825)"/>
</svg>
